<?xml version="1.0" standalone="no"?>
<!DOCTYPE svg PUBLIC "-//W3C//DTD SVG 20010904//EN"
 "http://www.w3.org/TR/2001/REC-SVG-20010904/DTD/svg10.dtd">
<svg version="1.0" xmlns="http://www.w3.org/2000/svg"
 width="300.000000pt" height="300.000000pt" viewBox="0 0 300.000000 300.000000"
 preserveAspectRatio="xMidYMid meet">
<metadata>
Created by potrace 1.11, written by Peter Selinger 2001-2013
</metadata>
<g transform="translate(0.000000,300.000000) scale(0.100000,-0.100000)"
fill="#000000" stroke="none">
<path d="M1517 2984 c-1 -1 -52 -4 -113 -8 -61 -4 -160 -18 -220 -32 -60 -14
-113 -26 -119 -27 -5 -2 -16 -6 -22 -10 -7 -5 -13 -6 -13 -3 0 8 -194 -76
-245 -107 -11 -6 -42 -25 -70 -42 -27 -16 -56 -35 -63 -42 -7 -7 -17 -13 -20
-13 -4 0 -20 -11 -35 -25 -15 -14 -27 -23 -27 -20 0 3 -18 -13 -40 -35 -22
-22 -40 -38 -40 -35 0 3 -6 0 -14 -7 -8 -7 -12 -16 -9 -20 2 -5 -1 -8 -7 -8
-7 0 -25 -13 -40 -30 -15 -16 -26 -30 -24 -30 2 0 -15 -19 -36 -42 -22 -24
-40 -46 -40 -49 0 -3 -11 -19 -25 -35 -14 -16 -28 -37 -31 -46 -3 -10 -9 -18
-14 -18 -4 0 -10 -8 -14 -17 -5 -18 -12 -29 -49 -85 -10 -16 -15 -28 -11 -28
4 0 0 -8 -9 -18 -10 -10 -14 -22 -10 -25 3 -4 1 -7 -5 -7 -7 0 -11 -3 -10 -7
1 -5 -5 -21 -12 -38 -50 -118 -88 -264 -109 -415 -16 -117 -4 -352 24 -470 3
-14 8 -34 10 -45 6 -30 13 -60 15 -60 1 0 3 -7 5 -15 30 -142 198 -444 302
-546 12 -12 19 -25 16 -28 -4 -3 2 -6 12 -6 10 0 16 -3 12 -6 -3 -3 10 -20 30
-37 19 -18 52 -49 74 -70 21 -21 39 -34 39 -30 0 4 8 -2 18 -13 20 -26 130
-100 198 -135 27 -13 51 -27 54 -30 14 -17 228 -97 309 -114 11 -3 31 -7 44
-10 12 -3 38 -8 57 -11 19 -3 55 -10 80 -14 46 -9 363 -7 390 2 12 4 158 38
225 51 6 2 24 8 40 14 35 13 57 20 68 22 7 1 181 91 246 127 19 10 42 26 51
34 9 8 27 22 39 30 51 34 79 59 165 147 118 119 146 150 146 162 0 5 8 15 18
20 9 6 13 11 9 11 -5 0 4 17 20 38 16 20 44 62 61 92 34 61 113 240 106 240
-3 0 0 9 6 21 6 11 13 28 15 37 2 9 11 42 19 72 14 54 20 89 35 205 13 99 5
314 -15 410 -3 11 -9 43 -14 70 -13 62 -49 176 -63 193 -5 6 -7 12 -4 12 17 0
-124 270 -145 278 -4 2 -8 9 -8 16 0 7 -8 21 -17 32 -10 10 -31 37 -48 59 -23
32 -162 173 -235 240 -63 57 -359 223 -414 232 -11 2 -25 8 -33 14 -7 6 -13 9
-13 6 0 -3 -24 2 -53 12 -73 26 -386 77 -400 65z"/>
</g>
</svg>
